<svg xmlns="http://www.w3.org/2000/svg" viewBox="0 0 480 160">
  <defs>
    <linearGradient id="g1" x1="0" y1="0" x2="1" y2="1">
      <stop offset="0" stop-color="#5b6ee8"/>
      <stop offset="1" stop-color="#22b8a6"/>
    </linearGradient>
  </defs>
  <!-- calendar -->
  <rect x="20" y="28" width="112" height="108" rx="22" fill="url(#g1)"/>
  <rect x="20" y="28" width="112" height="30" rx="22" fill="#3f4fd0"/>
  <rect x="20" y="44" width="112" height="14" fill="#3f4fd0"/>
  <circle cx="48" cy="43" r="5" fill="#fff" opacity=".9"/>
  <circle cx="104" cy="43" r="5" fill="#fff" opacity=".9"/>
  <!-- grid dots -->
  <g fill="#ffffff" opacity=".55">
    <circle cx="44" cy="76" r="4.5"/><circle cx="66" cy="76" r="4.5"/><circle cx="88" cy="76" r="4.5"/><circle cx="110" cy="76" r="4.5"/>
    <circle cx="44" cy="98" r="4.5"/><circle cx="110" cy="98" r="4.5"/>
    <circle cx="44" cy="120" r="4.5"/><circle cx="66" cy="120" r="4.5"/>
  </g>
  <!-- heart on a date -->
  <path d="M88 92 c-5-6-15-5-17.5 2.2 c-1.8 5.2 1.3 9.6 5.4 13.4 L88 118 l12.1-10.4 c4.1-3.8 7.2-8.2 5.4-13.4 C103 87 93 86 88 92z" fill="#ff5d7a"/>
  <!-- wordmark -->
  <text x="156" y="98" font-family="Avenir Next, Segoe UI, sans-serif" font-size="56" font-weight="700" fill="#2b2f4a">Fam<tspan fill="#22b8a6">Link</tspan></text>
  <text x="158" y="126" font-family="Avenir Next, Segoe UI, sans-serif" font-size="17" letter-spacing="3" fill="#8b90ab">CALENDARUL FAMILIEI</text>
</svg>
